<svg xmlns="http://www.w3.org/2000/svg" viewBox="134 134 485 485"><path d="M374.14 438.23l36.555-12.613 4.809-9.953 4.676-.687a375.09 375.09 0 0 0-11.129 23.871c-15.102 35.578-30.504 86.641-31.965 149.12-.309 13.391 10.293 24.5 23.684 24.809l.578.008c13.133 0 23.93-10.492 24.234-23.691 1.273-55.07 14.887-100.14 28.113-131.3 6.613-15.57 13.113-27.645 17.863-35.668 2.371-4.012 4.305-7.016 5.59-8.941l1.414-2.07.297-.414h-.004c1.414-1.906 2.484-3.961 3.262-6.082 1.516-2.125 2.707-4.633 3.379-7.445l1.461-6.078c11.883-49.355 19.402-80.406 8.957-131.71-.074-.367-.215-.727-.332-1.094 2.301-4.961 3.555-10.285 3.492-15.59-.016-8.836-3.055-16.746-7.199-23.598-3.113-5.066-6.894-9.742-11.113-14.168-5.769-6.047-12.383-11.609-19.453-16.93-18.375-13.691-39.957-25.395-57.148-33.898-17.172-8.477-29.891-13.664-30.137-13.762-7.937-3.231-16.996.586-20.227 8.523a15.53 15.53 0 0 0 8.527 20.23c0-.004.355.145 1.148.477 5.934 2.473 33.984 14.555 59.727 30.238 12.848 7.797 25.105 16.566 33.406 24.797l.27.273c4.016 3.988 7.047 7.82 8.828 10.957 1.859 3.242 2.34 5.527 2.328 6.863-.004.066-.012.129-.016.195-.148.027-.316.031-.457.066l-32.789 7.293c-8.715 9.82-21.418 16.027-35.551 16.027-4.766 0-9.371-.715-13.719-2.027-8.863 5.574-35.27 19.621-76.5 19.609-11.848 0-24.957-1.156-39.316-4.027a15.52 15.52 0 0 0-18.262 12.176c-1.68 8.41 3.773 16.586 12.176 18.266 16.352 3.269 31.527 4.625 45.398 4.625 37.324-.016 64.871-9.777 81.312-17.871 13.652 23.805 20.109 44.988 10.227 80.766l-83.602 28.855c-8.34 2.879-14.453 10.047-15.977 18.738s1.789 17.512 8.652 23.055l67.258 54.324c1.992 1.609 4.164 2.828 6.43 3.715 4.195-18.559 9.262-35.086 14.383-49.254z"/><path d="M399.22 262.41c24.113 0 43.652-19.543 43.652-43.652 0-.301-.016-.598-.023-.898-6.152-4.766-13.434-9.731-21.66-14.719-15.312-9.328-31.328-17.309-42.887-22.707-13.547 7.41-22.742 21.793-22.742 38.324.008 24.109 19.555 43.652 43.66 43.652z"/></svg>