<svg xmlns="http://www.w3.org/2000/svg" viewBox="134 134 485 485"><path d="M570.98 359.33a29.3 29.3 0 0 0-35.235-10.941c-.812-3.059-2.106-5.969-3.84-8.617-4.269-6.434-10.93-10.898-18.5-12.41a29.03 29.03 0 0 0-21.848 4.359l-146.81 79.656-11.367-33.008 58.723-20.602a29.37 29.37 0 0 0-17.519-56.027l-96.516 34.098a53.22 53.22 0 0 0-15.488 2.606c-29.41 9.473-47.359 40.871-37.223 70.328l29.695 88.039c5.305 16.172 17.414 29.215 33.148 35.707 13.688 5.969 36.465 1.609 36.465 1.609h.332c7.625-2.512 237.79-134.12 237.79-134.12a29.51 29.51 0 0 0 12.457-18.656c1.535-7.617.004-15.531-4.262-22.023zm-276.34-86.24a52.76 52.76 0 0 0-14.453-37.699c-9.625-10.152-22.887-16.066-36.871-16.441a52.77 52.77 0 0 0-37.703 14.441 52.78 52.78 0 0 0-16.449 36.871c-.379 13.984 4.813 27.547 14.434 37.703a52.77 52.77 0 0 0 36.863 16.461 53.05 53.05 0 0 0 37.648-14.527c10.145-9.613 16.086-22.84 16.531-36.809z"/></svg>