<svg xmlns="http://www.w3.org/2000/svg" viewBox="134 134 485 485"><path d="M545.22 248.61c0 24.789-20.098 44.887-44.891 44.887s-44.887-20.098-44.887-44.887 20.098-44.891 44.887-44.891 44.891 20.098 44.891 44.891m-78.8 263.4l-18.594-76.562c-2.004-8.227-.531-17.043 4.019-24.184l37.578-58.977c5.906-9.258 7.852-20.273 5.473-31.004a40.88 40.88 0 0 0-18.066-25.801c-4.461-2.844-9.356-4.769-14.551-5.734l-55.883-10.445 16.812-12.688c1.863-1.406 3.383-3.125 4.695-4.977 2.519 1.266 5.285 2.012 8.188 2.016h.039c4.914 0 9.539-1.906 13.008-5.375 3.488-3.477 5.414-8.102 5.426-13.035 0-4.922-1.906-9.547-5.375-13.035-5.559-5.59-14.027-7.016-21.051-3.594l-9.352-.035c-1.867-.824-3.812-1.488-5.891-1.777-4.16-.562-8.285.07-12.027 1.723l-20.363-.066h-.02c-2.437 0-4.481 1.789-4.859 4.188l-4.777-.285c-10.84-.723-21.215 3.352-28.77 11.004-34.148 34.551-81.387 53.234-130.14 51.055-2.727-.137-5.039 2.004-5.152 4.723a4.95 4.95 0 0 0 4.723 5.144c2.629.105 5.262.164 7.883.164 48.551 0 95.445-19.48 129.7-54.148 5.559-5.637 13.449-8.527 21.16-8.094l4.215.25c.055 1.492.719 2.867 1.883 3.75l-30.754 23.207c-11.312 8.547-13.566 24.715-5.031 36.027a25.65 25.65 0 0 0 15.812 9.797l56.797 10.617-8.586 13.48c-12.023 18.875-21.727 39.188-28.82 60.363l-53.984 160.97a24.38 24.38 0 0 0 1.293 18.75c2.93 5.879 7.957 10.262 14.184 12.344a24.44 24.44 0 0 0 7.832 1.293c3.746 0 7.477-.867 10.926-2.582a24.39 24.39 0 0 0 12.332-14.184l36.613-109.16 11.273 46.422a88.36 88.36 0 0 0 21.543 39.676l28.086 29.773c9.316 9.848 24.887 10.301 34.734 1.004 9.836-9.297 10.281-24.879.992-34.727zm-179.44-323.7c-8.961 0-16.246 7.285-16.246 16.246s7.285 16.246 16.246 16.246 16.246-7.285 16.246-16.246v-40.691c0-1.57-.742-3.043-2.016-3.969-1.262-.934-2.898-1.184-4.394-.742l-43.492 13.574a4.95 4.95 0 0 0-3.461 4.711v25.754a16.15 16.15 0 0 0-6.379-1.309c-8.961 0-16.246 7.285-16.246 16.246s7.285 16.246 16.246 16.246 16.246-7.285 16.246-16.246l.004-37.059 33.625-10.504v19.047a16.22 16.22 0 0 0-6.379-1.305z"/></svg>