<svg xmlns="http://www.w3.org/2000/svg" viewBox="134 134 485 485"><path d="M205.41 525.89c20.875 0 37.777-16.965 37.777-37.844 0-20.871-16.902-37.797-37.777-37.797s-37.848 16.918-37.848 37.797 16.965 37.844 37.848 37.844zm303.73-214.51c-1.231-.824-2.539-1.5-3.852-2.07l-130.46-38.941-1.625-.484-.195-.059-.004.004c-1.5-.363-3.059-.582-4.68-.582-10.039 0-19.852 11.746-19.852 20.109l-.145 91.66-91.406 85.605c-11.902 15.039-5.625 33.043-5.625 33.043 6.555 19.934 28.965 20.633 28.965 20.633l163.1.051c8.699 0 15.766-7.109 15.766-15.93 0-8.836-7.066-15.941-15.766-15.941l-112.6-.184 47.414-47.715c6.777-7.043 10.227-14.941 10.227-25.23l-.84-100.89 102.18 31.062c8.445 3.652 18.5.945 24.062-6.758 6.313-8.891 4.219-21.172-4.664-27.383zm-9.6-8.11l41.543-41.637c7.164-5.777 9.438-15.938 5.211-24.445-4.934-9.719-16.777-13.574-26.406-8.594-1.301.711-2.516 1.547-3.629 2.449l-59.387 59.492zm-80.5 25.16l-24.891 24.93v55.539l67.395-67.547z"/><path d="M501.92 347.13c-49.367 0-89.383 40.02-89.383 89.383a88.94 88.94 0 0 0 13.43 47.113l19.691.031c11.148 0 20.199 9.102 20.199 20.422a20.43 20.43 0 0 1-4.086 12.289 89.02 89.02 0 0 0 40.156 9.527c49.363 0 89.379-40.012 89.379-89.379s-40.027-89.387-89.387-89.387z"/></svg>