<svg xmlns="http://www.w3.org/2000/svg" xmlns:xlink="http://www.w3.org/1999/xlink" viewBox="134 134 485 485"><path d="M327.7 341.9c17.051 0 30.781-11.367 30.781-26.047V240.08l73.879-9.473v47.832c-2.367-.473-4.734-.945-7.578-.945-17.051 0-30.781 11.367-30.781 26.047s13.262 26.047 30.781 26.047c17.051 0 30.781-11.367 30.781-26.047l.004-97.559c0-5.211-2.367-10.418-6.156-13.734s-8.996-5.211-14.207-4.262l-83.352 10.891c-8.996 1.422-16.102 8.996-16.102 17.996v73.883c-2.367-.473-4.734-.945-7.578-.945-17.051 0-30.781 11.367-30.781 26.047-.473 14.68 12.785 26.043 30.309 26.043z"/><use xlink:href="#B"/><path d="M270.87 445.62c-11.84 8.051-25.574 12.312-40.727 12.312s-28.887-4.734-40.727-12.312c-22.73 12.785-38.359 37.414-38.359 65.355v9.945c0 10.418 8.523 18.941 18.941 18.941h101.82v-4.734c0-25.102 9.473-48.305 24.625-65.828-6.152-9.473-15.152-17.996-25.57-23.68z"/><use xlink:href="#B" x="291.72"/><path d="M562.59 445.62c-11.367 8.051-25.574 12.312-40.727 12.312s-28.887-4.734-40.727-12.312c-10.418 5.684-19.418 14.207-26.047 24.152 15.625 17.051 25.094 40.254 25.094 65.355v4.734h101.82c10.418 0 18.941-8.523 18.941-18.941v-9.945c.004-27.941-15.625-52.566-38.355-65.355zM328.64 410.1c0 26.047 21.312 47.359 47.359 47.359s47.359-21.312 47.359-47.359-21.312-47.359-47.359-47.359c-26.051-.473-47.359 20.84-47.359 47.359zm88.09 59.67c-11.84 8.051-25.574 12.312-40.727 12.312s-28.887-4.734-40.727-12.312c-22.73 12.785-38.359 37.414-38.359 65.355v9.945c0 10.418 8.523 18.941 18.941 18.941h119.82c10.418 0 18.941-8.523 18.941-18.941v-9.945c.473-27.941-15.156-52.566-37.887-65.355z"/><defs ><path id="B" d="M230.14 432.83c26.047 0 47.359-21.312 47.359-47.359s-21.312-47.359-47.359-47.359-47.359 21.312-47.359 47.359 21.312 47.359 47.359 47.359z"/></defs></svg>