<svg xmlns="http://www.w3.org/2000/svg" viewBox="134 134 485 485"><path d="M444.2 203.14c0 18.832-15.266 34.098-34.098 34.098s-34.098-15.266-34.098-34.098 15.266-34.098 34.098-34.098S444.2 184.308 444.2 203.14m-35.52 275.63l-51.148-22.73c-7.106-3.316-15.156-5.211-23.207-5.684l57.777-64.406c8.523-8.996 8.996-22.73 2.84-33.152l-12.785-21.312c-2.84-5.211-4.262-10.891-3.316-17.051l17.523-54.461 1.894-3.789c2.367-4.262.945-9.473-3.316-11.84l-80.98-44.043 29.363-28.887c3.316-3.316 3.789-8.523.473-12.312s-8.996-4.734-12.785-1.422l-38.832 31.73c-7.106 5.684-8.523 16.574-2.367 23.68 12.312 14.207 61.566 43.57 61.566 43.57l-4.262 3.789c-8.523 8.523-13.734 20.363-14.207 32.676l10.891 67.25c.473 1.894 1.894 7.106 1.894 7.106l-45.938 79.09v.473c-5.684 10.418-.945 23.207 10.418 26.992l90.926 29.363c6.629 1.894 13.734-1.422 15.629-8.051 2.367-7.582-1.422-14.211-8.051-16.578zm-28.89-18.47l10.418-64.879-37.887 42.148-.473 10.891 7.578 2.84zm-29.36 31.25v.945l1.894 96.137c0 7.106 5.684 12.312 12.785 12.312s12.312-5.684 12.312-12.785l3.316-66.773c.473-7.106-.473-13.734-1.894-20.363z"/><path d="M462.67 363.21l-38.359-36.938c-1.422-1.422-2.84-3.316-3.789-5.684l-22.258-51.148-12.312 38.832 12.785 24.152c.473.945 1.422 2.367 2.367 2.84l50.199 41.203c4.262 3.316 10.418 2.367 12.785-2.367 2.844-3.312 1.894-8.051-1.418-10.891zM364.16 175.2l-4.262-2.367c-1.422-.945-2.84-.945-4.262 0l-5.684-3.316c-.473 1.894-1.894 4.262-3.316 5.684l-3.789 3.316 6.629 4.262c-.473 1.422.473 3.316 1.894 4.262l4.262 2.367c3.789 2.367 8.523.945 10.891-2.367l.473-.945c1.902-3.789.48-8.527-2.836-10.895zm-53.04-22.25c-1.422 1.894-.473 4.734 1.894 6.629l4.734 2.84 8.051-6.629-8.051-4.262c-2.367-1.422-5.684-.945-6.629 1.422z"/></svg>