<svg xmlns="http://www.w3.org/2000/svg" viewBox="134 134 485 485"><path d="M481.94 140.55c-11.348 4.156-17.18 16.727-13.023 28.074 8.477 23.168 11.59 42.559 11.594 58.75-.102 31.641-11.582 51.898-23.09 65.531-5.762 6.738-11.562 11.598-15.762 14.652-2.094 1.523-3.781 2.602-4.836 3.242l-.906.531c-2.984-3.309-6.988-5.754-11.676-6.746l-.145-.031c-2.234-.48-27.512-6.207-59.531-19.145-32.035-12.883-70.668-33.137-99.758-61.281-8.703-8.387-22.555-8.137-30.945.563s-8.141 22.555.563 30.945c36.5 35.09 81.332 57.508 117.14 71.707 16.449 6.492 31.016 11.207 42.051 14.43-3.172 28.266-14.379 43.211-31.418 58.277l-1.738-1.769c-3.887-3.852-8.352-7.836-13.527-11.203-5.195-3.269-11.164-6.387-19.242-6.516-4.578-.055-9.836 1.394-14.039 4.445-6.402 4.641-9.852 11.367-11.977 18.855-2.113 7.609-3.047 16.621-3.066 28.086 0 5.219.211 10.934.641 17.227.508 7.394 6.656 13.051 13.957 13.051a13.65 13.65 0 0 0 .973-.035c7.719-.531 13.547-7.215 13.02-14.934-.395-5.75-.574-10.84-.574-15.309-.066-12.074 1.488-19.633 2.742-22.719 3.453 1.594 9.586 6.793 13.98 11.641a121.74 121.74 0 0 1 5.769 6.641l1.606 2.031.391.516.082.113a13.97 13.97 0 0 0 4.59 3.984c.121.082.238.188.359.262l.707.43c7.863-2.543 16.539-2.848 25.07-.387a47.26 47.26 0 0 1 1.875.59c15.426 5.219 25.945 18.41 28.535 33.434l.246.148c.879.543 2.016.965 3.305 1.281-1.426 19.773-7.266 58.918-28.449 124.58-2.379 7.356 1.668 15.25 9.027 17.625 1.43.461 2.879.68 4.305.68 5.914 0 11.41-3.777 13.324-9.711 26.582-82.434 30.207-125.81 30.223-143.66l-.012-1.457c22.117-39.938 23.922-68.895 28.199-115.97.094-1.016.094-2.008.035-2.981 5.477-4.43 11.781-10.25 18.133-17.648 16.84-19.477 33.711-50.992 33.605-93.996.004-21.863-4.254-46.469-14.262-73.797-4.152-11.355-16.719-17.188-28.07-13.031z"/><path d="M382.68 438.36c20.609 6.969 31.664 29.328 24.695 49.934s-29.328 31.668-49.938 24.695-31.664-29.328-24.695-49.938 29.328-31.664 49.938-24.691"/></svg>