<svg xmlns="http://www.w3.org/2000/svg" viewBox="134 134 485 485"><path id="svg_1" d="m361.18,283.36c4.188,3.191 9.078,5.594 14.535,6.867c20.637,4.805 41.258,-8.031 46.066,-28.668s-8.027,-41.262 -28.66,-46.066c-11.551,-2.691 -23.094,0.152 -31.863,6.789c-1.582,9.809 -2.398,19.949 -2.402,30.422c-0.008,11.895 1.055,22.359 2.324,30.656z"/><path id="svg_2" d="m399.91,590.97c-1.957,9.898 4.481,19.512 14.383,21.469c1.195,0.238 2.391,0.352 3.563,0.352a18.29,18.29 0 0 0 17.91,-14.73c1.211,-6.125 2.156,-12.191 2.879,-18.191c-10.688,2.211 -23.695,3.754 -37.566,4.586l-1.168,6.516l-0.001,-0.002z"/><path id="svg_3" d="m319.72,585.15a18.28,18.28 0 0 0 9.102,24.188c2.445,1.106 5.008,1.633 7.531,1.633c6.957,0 13.598,-3.992 16.656,-10.742a326.99,326.99 0 0 0 6.519,-15.453c-13.562,-0.602 -26.613,-1.914 -37.906,-3.992l-1.902,4.367l0,-0.001z"/><path id="svg_4" d="m465.81,562.45c0.348,-0.953 0.477,-1.934 0.293,-2.949c-13.203,-74.41 -35.602,-112.04 -50.109,-133.59c-2.906,-8.945 -7.137,-23.711 -3.644,-42.449c1.723,-9.25 5.453,-21.844 9.606,-34.398c-2.648,1.18 -5.574,1.848 -8.656,1.848c-8.512,0 -15.836,-5 -19.25,-12.211c4.059,5.137 10.328,8.449 17.387,8.449c12.238,0 22.156,-9.918 22.156,-22.16c0,-0.742 -0.039,-1.477 -0.113,-2.203c-0.141,-1.394 -0.418,-2.746 -0.801,-4.055l3.09,-8.195c1.773,-2.398 2.606,-4.672 3.516,-7.133c3.117,-9.402 4.594,-22.984 4.656,-39.879c-0.008,-18.184 -1.988,-39.711 -7.144,-60.961c-5.18,-21.234 -13.469,-42.262 -26.812,-59.191c-3.758,-4.746 -10.648,-5.555 -15.398,-1.797a10.96,10.96 0 0 0 -1.801,15.398c10.562,13.309 18.07,31.574 22.703,50.762c1.801,7.398 3.176,14.922 4.195,22.328c0.133,0.203 0.285,0.391 0.414,0.598a41.75,41.75 0 0 1 5.25,31.727c-0.789,3.391 -1.984,6.586 -3.496,9.574c-0.281,6.957 -0.91,12.992 -1.719,17.613c-3.129,-1.113 -6.672,-2.129 -10.668,-2.941a41.84,41.84 0 0 1 -25.012,8.254c-3.199,0 -6.418,-0.367 -9.559,-1.098a41.87,41.87 0 0 1 -15.375,-7.086l-1.449,0.234l-0.262,-1.594a205.77,205.77 0 0 1 -2.602,-32.637c0.008,-28 5.766,-63.121 27.488,-96.219c3.32,-5.066 1.906,-11.863 -3.152,-15.184a10.97,10.97 0 0 0 -15.184,3.156c-24.703,37.668 -31.094,77.328 -31.086,108.25c0.008,13.477 1.207,25.336 2.672,34.805c2.238,14.465 5.078,23.34 5.215,23.785c0.625,1.934 1.754,3.547 3.168,4.805c-0.91,2.078 -1.519,4.32 -1.754,6.676c-0.07,0.723 -0.113,1.457 -0.113,2.203c0,12.242 9.922,22.16 22.16,22.16c7.059,0 13.332,-3.312 17.391,-8.453c-3.414,7.215 -10.742,12.219 -19.254,12.219c-1.981,0 -3.887,-0.289 -5.703,-0.793c1.387,7.422 2.133,14.242 1.731,19.457c-1.461,18.941 -35.82,19.066 -36.734,47.082c0,5.348 0.488,9.898 1.352,13.785l0.09,2.238c0.074,2.223 0.129,5.219 0.09,8.84c-0.254,24.848 -4.887,79.309 -37.77,117.67c0.363,0.941 0.883,1.848 1.539,2.723c19.926,26.609 170.19,22.984 178.46,0.535l-0.002,0.002z"/></svg>