<svg xmlns="http://www.w3.org/2000/svg" viewBox="134 134 485 485"><path d="M530.39 151.05l-50.676 7.578c-3.316.473-5.684 3.316-5.684 6.629v47.832c-2.84-.945-6.156-1.422-9.473-.473-8.996 1.894-15.156 9.473-13.734 17.051s9.945 12.312 18.941 10.418c8.051-1.422 13.734-7.578 13.734-14.68l.004-47.836 44.988-6.629v33.625c-2.84-.945-6.156-1.422-9.473-.473-8.996 1.894-15.156 9.473-13.734 17.051s9.945 12.312 18.941 10.418c8.051-1.422 13.734-7.578 13.734-14.68l.004-59.203c0-4.262-3.789-7.102-7.574-6.629zm-146.25 27.92c24.59 7.231 38.664 33.027 31.434 57.621s-33.027 38.664-57.621 31.434-38.664-33.027-31.434-57.621 33.027-38.664 57.621-31.434m105.99 122.21c1.422-8.523-2.367-17.051-10.418-21.312-5.684-2.84-12.312-2.84-17.523 0l-11.84-8.996c1.422-9.473-3.789-18.469-13.262-20.836-9.945-2.84-20.363 2.84-23.68 12.785-2.84 9.945 2.84 20.363 12.785 23.68 4.734 1.422 9.473.945 13.262-.945l10.891 8.051c-7.106 13.262-15.156 26.52-20.836 34.098-.945-.945-1.422-1.894-1.894-2.84-8.051-11.84-20.836-29.836-47.832-37.887l-25.574-7.578-25.566-7.582c-34.57-10.418-64.406 21.312-78.613 36.465l-.945.945c-14.207 14.68-30.309 50.672-33.625 57.777-4.262 9.945 0 21.785 9.945 26.047 2.367.945 5.211 1.894 8.051 1.894 7.578 0 14.68-4.262 17.996-11.84 6.629-15.156 18.941-39.309 26.047-46.883l.945-.945c3.316-3.316 8.996-9.473 15.629-14.68l-24.625 82.875c-1.894 6.156-2.84 12.785-2.84 19.418-.945 46.41-2.367 64.879-3.316 68.195-2.844 7.578-24.629 44.516-43.574 74.352-6.629 10.891-3.789 25.102 7.106 31.73 3.789 2.367 8.051 3.789 12.312 3.789 7.578 0 15.156-3.789 19.418-10.891 16.574-26.52 45.465-72.93 49.254-87.613.945-3.316 3.316-12.312 4.262-63.934l.945.945c17.996 19.418 35.52 44.043 36.938 50.672 0 15.156-4.262 67.25-5.684 86.191-.945 12.785 8.523 23.68 20.836 24.625 12.785.945 23.68-8.523 24.625-20.836 0-2.84 5.684-69.145 5.684-89.508S375.051 442.303 358 421.463l27.469-86.191c3.316 3.789 6.156 7.578 9.473 12.312 6.629 9.473 15.156 21.785 30.781 24.625 1.422.473 3.316.473 5.211.473 9.473 0 25.574-6.629 51.148-54.934l8.996 6.629c1.422.945 3.316 1.894 5.211 1.894 2.84 0 5.211-1.422 7.106-3.316 2.84-3.789 1.894-9.473-1.894-12.312z"/></svg>