<svg xmlns="http://www.w3.org/2000/svg" viewBox="134 134 485 485"><path d="M542.7 174.26c-32.203 0-58.25 26.047-58.25 58.25 0 10.418 2.84 19.891 7.578 28.414l-10.891 26.52c-1.894 4.262 2.367 8.523 6.629 6.629l26.52-10.891c8.523 4.734 17.996 7.578 28.414 7.578 32.203 0 58.25-26.047 58.25-58.25 0-31.73-26.047-58.25-58.25-58.25zm26.992 73.875c0 5.684-5.211 9.945-11.84 9.945s-11.84-4.262-11.84-9.945 5.211-9.945 11.84-9.945c.945 0 1.894 0 2.84.473v-18.469l-28.414 3.789v29.363c0 5.684-5.211 9.945-11.84 9.945s-11.84-4.262-11.84-9.945 5.211-9.945 11.84-9.945c.945 0 1.894 0 2.84.473l.004-28.887c0-3.316 2.84-6.629 6.156-7.106l32.203-4.262c1.894-.473 4.262.473 5.684 1.894s2.367 3.316 2.367 5.211zM264.71 294.55c4.262 1.894 8.523-2.367 6.629-6.629l-10.891-26.52c4.734-8.523 7.578-17.996 7.578-28.414 0-32.203-26.047-58.25-58.25-58.25-32.68-.477-58.727 26.043-58.727 58.246s26.047 58.25 58.25 58.25c10.418 0 19.891-2.84 28.414-7.578zm-27.469-46.414c0 5.684-5.211 9.945-11.84 9.945s-11.84-4.262-11.84-9.945 5.211-9.945 11.84-9.945c.945 0 1.894 0 2.84.473v-18.469l-28.414 3.789v29.363c0 5.684-5.211 9.945-11.84 9.945s-11.84-4.262-11.84-9.945 5.211-9.945 11.84-9.945c.945 0 1.894 0 2.84.473l.004-28.887c0-3.316 2.84-6.629 6.156-7.106l32.203-4.262c1.894-.473 4.262.473 5.684 1.894s2.367 3.316 2.367 5.211zm5.689 95.664c0 15.629 12.785 28.414 28.414 28.414s28.414-12.785 28.414-28.414-12.785-28.414-28.414-28.414-28.414 12.785-28.414 28.414zm44.04 36.94h-31.258c-18.469 0-24.152 14.68-29.363 27.469-.945 2.84-2.367 5.684-3.789 8.523-2.367 5.211-2.367 10.891.473 15.629 3.316 5.684 9.473 8.996 15.156 11.367l-1.894 26.52c-.473 3.316 1.894 6.156 4.734 7.106l-6.156 85.719c-.473 7.578 5.211 14.207 12.785 15.156h.945c7.106 0 13.262-5.684 13.734-12.785l6.629-87.613h3.316l6.629 87.613c.473 7.106 6.629 12.785 13.734 12.785h.945c7.578-.473 13.262-7.106 12.785-15.156l-6.156-85.719c2.84-.945 5.211-3.789 5.211-7.106l-1.894-26.52c4.734-1.894 10.418-4.262 13.734-8.996-2.84-7.106-2.84-15.156.473-22.258-.473-1.422-1.422-2.84-1.894-4.262-4.727-13.266-10.41-27.473-28.879-27.473zm8.051 44.043l-5.684 1.422c-5.684.945-9.473 5.684-8.523 11.367.473 5.211 5.211 8.996 9.945 8.996h1.422c.945 0 1.894-.473 3.316-.473l-.004 5.68c0 1.422-.945 2.367-1.894 2.84l-20.836 6.156h-1.894l-20.836-6.156c-1.422-.473-1.894-1.422-1.894-2.84v-6.156c1.422 0 2.367.473 3.316.473 5.684.473 10.418-3.316 11.367-8.523.945-5.684-3.316-10.418-8.523-11.367-1.894 0-3.789-.473-5.684-1.422v-9.473c0-1.894 1.894-3.316 3.789-2.84l18.941 5.684h1.894l18.941-5.684c1.894-.473 3.789.945 3.789 2.84l-.004 9.477zM480.66 372.21c15.629 0 28.414-12.785 28.414-28.414s-12.785-28.414-28.414-28.414-28.414 12.785-28.414 28.414c-.477 15.629 12.312 28.414 28.414 28.414zm44.52 35.52c-5.211-12.785-10.895-26.992-29.363-26.992h-30.781c-18.469 0-24.152 14.68-29.363 27.469-.473 1.422-.945 2.84-1.894 4.262 3.316 7.106 3.316 15.156.473 22.258 3.316 4.262 8.523 7.106 13.734 8.996l-1.894 26.52c-.473 3.316 1.894 6.156 4.734 7.106l-6.156 85.719c-.473 7.578 5.211 14.207 12.785 15.156h.945c7.106 0 13.262-5.684 13.734-12.785l6.629-87.613h3.316l6.629 87.613c.473 7.106 6.629 12.785 13.734 12.785h.945c7.578-.473 13.262-7.106 12.785-15.156l-6.156-85.719c2.84-.945 5.211-3.789 5.211-7.106l-1.894-26.52c5.684-1.894 11.84-5.684 15.156-11.367 2.84-4.734 2.84-10.418.473-15.629-1.414-3.312-2.359-6.152-3.781-8.996zm-20.836 17.051l-5.684 1.422c-5.684.945-9.473 5.684-8.523 11.367.473 5.211 5.211 8.996 9.945 8.996h1.422c.945 0 1.894-.473 3.316-.473l-.004 5.68c0 1.422-.945 2.367-1.894 2.84l-20.836 6.156h-1.894l-20.836-6.156c-1.422-.473-1.894-1.422-1.894-2.84v-6.156c1.422 0 2.367.473 3.316.473 5.684.473 10.418-3.316 11.367-8.523.945-5.684-3.316-10.418-8.523-11.367-1.894 0-3.789-.473-5.684-1.422v-9.473c0-1.894 1.894-3.316 3.789-2.84l18.941 5.684h1.894l18.941-5.684c1.894-.473 3.789.945 3.789 2.84l-.004 9.477zM420.99 407.73c-5.211-12.785-10.895-26.992-29.363-26.992h-30.781c-18.469 0-24.152 14.68-29.363 27.469-.945 2.84-2.367 5.684-3.789 8.523-2.367 5.211-2.367 10.891.473 15.629 3.316 5.684 9.473 8.996 15.156 11.367l-1.894 26.52c-.473 3.316 1.894 6.156 5.211 7.106l-6.629 85.719c-.473 7.578 5.211 14.207 12.785 15.156h.945c7.106 0 13.262-5.684 13.734-12.785l6.629-87.613h3.316l6.629 87.613c.473 7.106 6.629 12.785 13.734 12.785h.945c7.578-.473 13.262-7.106 12.785-15.156l-6.156-85.719c2.84-.945 5.211-3.789 5.211-7.106l-1.894-26.52c5.684-1.894 12.312-5.684 15.156-11.367 2.84-4.734 2.84-10.418.473-15.629-1.418-3.316-2.367-6.156-3.312-9zm-21.312 17.051l-5.684 1.422c-5.684.945-9.473 5.684-8.523 11.367.473 5.211 5.211 8.996 9.945 8.996h1.422c.945 0 1.894-.473 3.316-.473l-.004 5.68c0 1.422-.945 2.367-1.894 2.84l-20.836 6.156h-1.894l-20.836-6.156c-1.422-.473-2.367-1.418-2.367-2.84v-6.156c1.422.473 2.367.473 3.316.473 5.684.945 10.418-3.316 11.367-8.523.945-5.684-3.316-10.418-8.523-11.367l-5.684-1.422v-9.473c0-1.894 1.894-3.316 3.789-2.84l18.941 5.684h1.894l18.941-5.684c1.894-.473 3.789.945 3.789 2.84l-.004 9.477zM376 372.21c15.629 0 28.414-12.785 28.414-28.414S391.629 315.382 376 315.382s-28.414 12.785-28.414 28.414S360.375 372.21 376 372.21z"/><path d="M352.32 286.97c0-15.629-12.785-28.414-28.414-28.414s-28.414 12.785-28.414 28.414 12.785 28.414 28.414 28.414 28.414-12.785 28.414-28.414z"/><path transform="translate(100)" d="M352.32 286.97c0-15.629-12.785-28.414-28.414-28.414s-28.414 12.785-28.414 28.414 12.785 28.414 28.414 28.414 28.414-12.785 28.414-28.414z"/></svg>