<svg xmlns="http://www.w3.org/2000/svg" viewBox="134 134 485 485"><path d="M423.34 306.1c26.918-6.266 43.664-33.176 37.398-60.102-2.93-12.578-10.367-22.93-20.203-29.758-22.215 36.5-33.879 67.16-39.973 89.844 7.262 1.711 15.02 1.824 22.777.016zm-60.11-37.4l1.121 3.996c6.227-17.938 15.039-38.5 27.469-61.152-21.633 9.496-34.137 33.312-28.59 57.156zm-9.37 78.84l.121 4.176a17.81 17.81 0 0 0 17.738 16.504 18.61 18.61 0 0 0 1.316-.047c9.762-.715 17.105-9.176 16.461-18.926a26.27 26.27 0 0 1-.035-1.707c.074-11.336 2.898-76.273 71.523-169.79a17.801 17.801 0 1 0-28.688-21.082c-73.203 99.512-78.512 172.98-78.438 190.88z"/><path d="M185.62 598.05c39.863-35.84 79.641-54.328 111.35-64.047 31.668-9.695 55.223-10.461 61.512-10.453l.625.004c4.262.547 14.852 1.672 29.891 1.676 24.094-.02 59.684-2.867 98.828-16.188 39.082-13.281 81.836-37.391 118.14-79.184 10.078-11.59 8.856-29.16-2.734-39.242s-29.16-8.856-39.234 2.738c-29.113 33.422-62.492 52.211-94.113 63.031-16.758 5.727-32.977 9.086-47.457 10.988-3.777-8.871-9.836-18.555-16.938-28.699-22.551-32.211 8.305-51.18 5.566-86.043.113-12.445-5.754-22.801-14.297-30.062-2.426 12.746-2.809 21.34-2.836 25-.004.766.012 1.227.023 1.363.797 12.18-8.43 22.789-20.574 23.684a23.05 23.05 0 0 1-1.644.055c-11.594 0-21.332-9.062-22.18-20.633-.027-.379-.133-1.891-.133-4.496-.035-7.437.945-31.863 12.711-68.199-1.34-3.062-2.441-6.269-3.223-9.633-6.461-27.766 9.652-55.59 36.297-64.199l1.648-2.887c3.949-9.672 8.422-19.742 13.52-30.223a17.8 17.8 0 0 0-8.215-23.793c-8.84-4.309-19.492-.633-23.793 8.207-38.848 79.723-45.348 140.35-45.332 171.49 0 2.566.047 4.926.117 7.086-16.754 25.199-27.301 70.02-2.586 134.52-13.441 1.738-30.445 4.965-49.859 10.895-38.211 11.672-85.734 33.996-132.28 75.887-11.418 10.277-12.348 27.863-2.074 39.281 5.492 6.106 13.078 9.215 20.691 9.215 6.625 0 13.277-2.356 18.59-7.137z"/></svg>