<svg xmlns="http://www.w3.org/2000/svg" viewBox="134 134 485 485"><path d="M430.68 246.48l5.813-4.684c-1.594-.559-3.297-.875-5.082-.875l-17.266-.004a529.21 529.21 0 0 1-3.047 17.941c6.309-3.062 13.121-7.316 19.582-12.379zm-65.14 8.95l-2.418-14.516h-8.613a15.3 15.3 0 0 0-9.238 3.102 378.95 378.95 0 0 0-11.082 5.293c13.145.664 23.758 3.559 31.352 6.121zm110.69-49.55a15.86 15.86 0 0 1 8.598 2.531c7.383 4.746 9.531 14.617 4.789 22-3.551 5.481-8.106 11.273-13.312 17.051 1.43 3.949 2.644 7.574 3.625 10.832 2.098 6.867 3.18 12.25 3.594 15.934-1.402-.551-2.984-1.258-4.613-2.133-5.211-2.644-11.18-6.508-16.758-10.48a203.21 203.21 0 0 1-12.023 10.078c-11.609 8.777-28.41 20.008-47.348 23.258-3.91 13.531-8.684 25.648-14.152 31.121-2.824-2.824-5.461-7.441-7.891-13.09-1.769 5.574-5.219 10.527-10.027 14.09-3.879 10.895-5.606 19.523-5.137 25.656.762 9.867 4.684 16.656 8.828 23.84 1.856 3.207 3.769 6.519 5.398 10.133 2.141 3.019 6.195 11.855 10.797 25.648h12.141l29.668 178.69c2.227 13.406 14.898 22.473 28.305 20.246s22.473-14.898 20.246-28.305l-34.172-205.81.004-87.449c5.543 3.82 11.488 7.59 17.637 10.738 7.527 3.707 14.969 6.973 24.48 7.148 3.184 0 6.699-.469 10.285-1.887 5.422-2.031 10.473-6.75 12.988-12.016 2.617-5.277 3.379-10.641 3.398-16.121-.039-8.262-1.797-17.273-5.16-28.496-3.391-11.199-8.484-24.531-15.668-40.711-3.57-8.035-12.984-11.656-21.02-8.082-4.574 2.031-7.707 5.957-8.91 10.441 2.973-3.07 7.043-4.852 11.41-4.852z"/><path d="M347.33 217.12l-1.035 3.723a44.59 44.59 0 0 0 25.434 7.926c24.73 0 44.781-20.051 44.781-44.781s-20.051-44.781-44.781-44.781c-19.664 0-36.352 12.676-42.375 30.297 14.605 10.465 22.297 29.059 17.977 47.617z"/><path d="M386.64 250.39l-13.934-7.961v15.578l2.465.926 11.465-6.551zm17.91-7.96l-13.93 7.961v1.992l13.93 7.961zm-14.32 21.38l.336.043c-.574-.324-1.231-.523-1.937-.523-.164 0-.324.031-.484.047l2.086.434zm-5.07 31.42c-.32.574-.516 1.223-.516 1.926a3.98 3.98 0 0 0 3.981 3.981c2.195 0 3.981-1.785 3.981-3.981 0-.461-.094-.898-.238-1.312-2.477-.035-4.887-.227-7.207-.613zm-72.93-129.18c22.477 5.234 36.453 27.699 31.219 50.172s-27.695 36.453-50.172 31.219-36.453-27.695-31.219-50.172 27.695-36.453 50.172-31.219"/><path d="M285.5 590.79v2.102c0 10.992 8.91 19.902 19.902 19.902 10.715 0 19.434-8.481 19.863-19.094-3.234.141-6.352.219-9.297.219-13.734 0-22.664-1.504-30.469-3.129z"/><path d="M351.68 591.4l.91 4.484c2.191 10.773 12.695 17.727 23.469 15.539 10.762-2.187 17.727-12.699 15.539-23.473l-.5-2.465c-11.578.645-17.719 1.894-24.492 3.277-4.219.863-8.75 1.781-14.926 2.637zM249.73 310.01c3.457.973 6.938 1.293 10.855 1.305 5.352-.031 11.672-.687 19.16-2.074 4.445 6.156 10.273 15.527 13.531 25.918 2.598 1.551 6.297 3.426 11.438 5.387 10.25 3.941 15.383 15.48 11.453 25.727-2.941 7.641-10.406 12.77-18.586 12.77a19.81 19.81 0 0 1-7.137-1.332l-2.992-1.191-.418.738c-11.434 12.996-45.625 93.492-33.402 206.29 28.531-1.992 31.848 8.625 75.633 5.973s34.164-8.457 81.27-8.457c.918-114.4-29.391-186.59-34.191-192.33-5.117-11.578-13.539-20.102-14.738-35.695-.598-7.746 1.957-18.004 5.781-28.488 6.469-4.328 10.734-11.699 10.734-20.074 0-1.324-.137-2.617-.34-3.883a360.72 360.72 0 0 1 5.051-9.875c.93.207 1.863.414 2.832.586 2.461.414 4.926.605 7.391.605 19.613-.273 38.113-10.863 54.645-23.359 16.445-12.711 30.43-27.723 38.566-40.277 3.566-5.551 1.957-12.934-3.59-16.504s-12.93-1.957-16.496 3.586c-5.914 9.297-18.777 23.359-33.039 34.266-14.176 11.117-30.234 18.68-40.082 18.406a20.38 20.38 0 0 1-3.426-.27c-5.578-.863-12.996-4.137-22.922-7.695-9.91-3.516-22.41-6.926-38.078-6.906-24.648.02-46.102 5.129-61.98 11.801-7.961 3.367-14.523 7.074-19.68 11.203-2.586 2.082-4.848 4.266-6.777 6.965-1.863 2.691-3.703 6.094-3.769 10.922-.047 3.156 1.106 6.754 3.106 9.344 3.051 3.961 6.828 5.633 10.199 6.629zm42.15 63.98c1.875.723 3.809 1.066 5.707 1.066 6.402 0 12.434-3.883 14.867-10.215a15.93 15.93 0 0 0-9.156-20.574c-8.148-3.109-13.539-6.309-16.613-8.84-.277-.227-.559-.457-.797-.672-.012-.008-.02-.02-.027-.027-1.789-1.602-2.562-2.793-2.922-3.512-.344-.742-.383-1.035-.406-1.629-.012-.801.289-2.531 1.777-5.18.027-.047.063-.098.086-.145-2.125-4.07-4.414-7.711-6.441-10.656-6.543 1.102-12.238 1.66-17.34 1.691-2.59-.008-4.848-.156-6.949-.441-1.801 4.508-2.969 9.426-2.977 14.73-.02 5.266 1.231 10.758 3.688 15.707 2.445 4.973 5.984 9.359 10.25 13.168.039.035.082.063.121.098 2.289 2.031 4.805 3.91 7.519 5.684 5.578 3.648 12.055 6.828 19.613 9.746z"/></svg>