<svg xmlns="http://www.w3.org/2000/svg" viewBox="134 134 485 485"><path d="M400.38 488.16c-7.066 3.188-16.004 6.543-27.598 10.129-16.734 5.18-31.848 6.852-45.023 6.551l-27.234 22.582-28.988 37.355c-9.379 12.09-7.18 29.488 4.906 38.867 5.047 3.922 11.031 5.816 16.961 5.816 8.266 0 16.445-3.684 21.902-10.719l85.668-110.41zm-71.15-129.61l-.711-8.531-3.324 2.59zm70.95-66.83l17.129-2.301 14.867-46.898a54.15 54.15 0 0 1-9.477.844c-1.297 0-2.574-.062-3.848-.152-3.797 2.652-7.398 6.758-9.769 11.062-.102.152-.211.285-.309.441 0 0-.141.234-.496.785-1.816 2.856-8.539 13.227-18.312 26.602 3.609 2.422 6.981 5.621 10.215 9.617z"/><path d="M270.79 488.75l-102.31 84.824a22.17 22.17 0 0 0-2.91 31.207c4.383 5.289 10.707 8.019 17.074 8.019a22.07 22.07 0 0 0 14.129-5.098v-.008l124.42-103.15c-30.773-2.293-49.32-15.039-50.398-15.797z"/><path d="M421.12 489.61l-50.176 81.656c-6.414 10.426-3.152 24.074 7.273 30.488s24.074 3.144 30.488-7.281l65.371-106.38c3.606-5.863 4.273-13.141 1.801-19.57a22.23 22.23 0 0 0-14.457-13.305l-11.355-3.324c-21.832 11.137-19.695 21.02-43.727 33.383zm-52.76-272.18c11.145 21.789 2.516 48.492-19.277 59.641s-48.492 2.516-59.641-19.273-2.516-48.496 19.277-59.641 48.492-2.519 59.641 19.273m4.42 274.21c62.051-19.207 42.941-29.406 72.766-44.324l-4.586-2.695-4.219-2.387 32.977-42.5c6.887 10.938 23.703 42.473 23.641 88.156-.02 24.254-4.602 52.742-18.273 85.371-5.918 14.113.719 30.344 14.828 36.266a27.61 27.61 0 0 0 10.703 2.164c10.828 0 21.109-6.383 25.559-16.992 16.477-39.242 22.609-75.438 22.59-106.8 0-38.527-9.113-69.605-18.371-91.16-3.008-7-6.023-12.992-8.769-17.969 12.246-51.242 15.586-75.906 8.348-120.59l.969.422c7.316 3.313 13.801 7.766 18.082 13.113 4.25 5.426 6.965 11.449 7.063 21.363.094 13.223-6 34.289-25.863 63.863-5.449 8.137-3.269 19.148 4.867 24.598a17.65 17.65 0 0 0 9.844 3c5.719 0 11.328-2.762 14.75-7.871 22.043-33.02 31.766-59.98 31.855-83.59.109-18.059-6.344-33.629-15.816-44.707-14.266-16.719-33.215-24.293-48.133-28.539-15.02-4.164-26.602-4.75-27.445-4.809a17.45 17.45 0 0 0-1.969.016c-.293.012-.57.055-.852.086a17.35 17.35 0 0 0-3.344.695c-6.762 1.633-12.941 3.684-18.824 5.945 5.031 29.773-12.922 76.379-12.922 54.996 0-2.922-.336-5.887-.906-8.844l-13.609 42.93c-2.07 6.508-7.773 11.305-14.539 12.215l-1.93.258c-.203 12.488-3.984 27.957-12.141 50.922-.043.172-.105.363-.152.539l-31.816 41.004-.684 5.984-1.902-.387-1.574-7.879c1.582-11.559 4.289-24.613 8.84-39.215 12.531-.695 21.977-11.922 23-29.695.355-6.219-.402-12.602-1.984-18.797l-38.715 5.199a16.63 16.63 0 0 1-2.375.164c-8.836 0-16.383-6.609-17.555-15.375-.629-4.695.605-9.352 3.477-13.109 2.871-3.766 7.047-6.187 11.738-6.809l25.496-3.426c-10.836-12.008-22.195-13.23-35.922-11.184-3.516.523-8.336 2.734-13.125 6.457-.867.5-1.703 1.07-2.465 1.781v-.008l-52.078 48.391c-4.828 4.481-5.648 11.77-1.949 17.219l34.688 51.066c-2.34 5.996-5.187 12.469-8.637 19.473l-8.793 11.094-35.918 45.328s.242.172.676.457c5.394 3.539 43.941 26.918 101.4 9.129zm-41.988-154.16c1.91 9.203 4.004 19.824 2.277 34.602l-15.293-22.516z"/><path d="M433.71 237.7l6.434-20.301c2.356-7.402 9.141-12.379 16.898-12.379 1.813 0 3.625.285 5.367.84 2.246.711 4.242 1.84 5.949 3.262 2.699-6.137 4.207-12.914 4.207-20.051 0-27.539-22.32-49.863-49.863-49.863s-49.863 22.324-49.863 49.863 22.324 49.863 49.863 49.863a49.91 49.91 0 0 0 11.008-1.234z"/><path d="M370 300.24a13.29 13.29 0 0 0-11.41 14.945c.895 6.684 6.602 11.531 13.16 11.531a13.24 13.24 0 0 0 1.789-.121h-.008l59.055-7.926c5.082-.691 9.352-4.273 10.902-9.164l26.227-82.734c2.219-7.004-1.66-14.473-8.66-16.691-6.996-2.227-14.473 1.656-16.691 8.652l-23.68 74.695z"/></svg>