<svg xmlns="http://www.w3.org/2000/svg" viewBox="134 134 485 485"><path d="M493.45 467.4l-62.984-15.629c-1.894-25.574-8.523-75.773-27.941-112.24-2.367-4.734-2.84-10.418-.473-15.629 3.316-5.684 5.684-11.367 7.578-17.996 10.891-39.781 4.262-82.402-17.996-116.97l-9.945-15.629c-5.211-8.051-16.102-12.312-25.102-8.051-11.367 5.211-15.156 18.941-8.523 28.887l10.418 16.102c16.102 25.102 20.836 55.883 13.262 84.77-3.789 14.207-14.68 26.047-27.941 30.781-2.367.945-24.152 7.106-31.258 9.945-21.312 8.051-59.199 40.727-66.773 46.883-4.262 3.789-6.629 9.473-6.629 15.156s2.84 11.367 7.106 15.156l53.98 44.992c3.789 2.84 8.051 4.262 12.312 4.262.945 0 1.894 0 2.84-.473l-151.54 83.824c-10.418 5.684-15.629 18.469-10.891 29.363 3.789 8.523 11.84 12.785 20.363 12.785 3.789 0 7.106-.945 10.891-2.84l171.44-94.242h48.781l45.938 11.367-35.992 49.254c-6.629 8.996-6.629 21.785 1.422 29.363 9.945 9.945 26.047 8.523 33.625-2.367L505.3 501.03c4.262-6.156 5.211-13.734 2.84-20.836-1.898-6.164-7.578-11.371-14.684-12.793zm-204.59-69.617c11.367-8.996 23.207-17.523 31.258-22.258l2.84 49.727zm67.73-125.973c0 27.203-22.051 49.254-49.254 49.254s-49.254-22.051-49.254-49.254 22.051-49.25 49.254-49.25 49.254 22.051 49.254 49.25m225.89 30.79c-17.523-11.367-41.203-6.629-54.461 9.945l-4.262 5.684c-.945 1.422-2.84 1.422-3.789 0l-5.684-7.106c-14.68-18.469-42.148-20.363-59.199-3.789-14.207 13.734-15.156 35.047-4.734 51.621h24.625l11.367-19.418c1.422-2.367 3.789-3.789 6.156-3.789 2.84 0 5.211 1.422 6.156 3.789l21.312 35.52 7.578-12.312c1.422-2.367 3.789-3.789 6.156-3.789h20.836c4.262 0 7.578 3.316 7.578 7.578s-3.316 7.578-7.578 7.578h-16.574l-11.367 19.418c-1.422 2.367-3.789 3.789-6.156 3.789-2.84 0-5.211-1.422-6.156-3.789l-21.312-35.52-7.578 12.312c-1.422 2.367-3.789 3.789-6.156 3.789h-17.523l48.777 60.617c6.156 7.578 17.523 7.578 23.68 0l58.25-73.406c14.211-18.469 10.422-45.938-9.941-58.723z"/></svg>