<svg xmlns="http://www.w3.org/2000/svg" viewBox="0 0 512 512"><path fill="white" d="M0 0h512v512H0z"/><path fill="#1d1d1b" d="M331.5 183.8l-75.4 70.3-75.3-70.2v36l-2.5-2.1-50.6-47.3a6.3 6.3 0 0 1-1.9-4.1l-.2-104.9.1-2.1 130.4 122.2 130.1-121v391.9h-54.7zM16 452.5V102.8l240.2 223.8 47.7-44.4.2 2.8q0 33.5-.1 66.9a5.7 5.7 0 0 1-1.4 3.8l-45.4 42.5-1.2.8L70.9 226.4v226.1zm480 .1h-54.5V227.2l-.6-.4-26.7 24.8-.2-2.5v-67.5a5.5 5.5 0 0 1 1.4-3.5l79.8-74.5c.1-.2.3-.2.8-.4zM126 314.2l7.8 7.1 44.8 41.9a6.9 6.9 0 0 1 2 4.2l.1 82.6-.1 2.5H126z"/></svg>