<svg xmlns="http://www.w3.org/2000/svg" viewBox="134 134 485 485"><path d="M385.47 197.81c7.375 18.176-1.383 38.891-19.562 46.266s-38.891-1.383-46.266-19.562 1.383-38.891 19.562-46.266 38.891 1.383 46.266 19.562m150.91 152.82c-4.539-1-9.043 1.809-10.148 6.324a56.28 56.28 0 0 1-43.332 35.652 8.46 8.46 0 0 0 2.317 16.594c.785-.004 1.566-.109 2.32-.32 47.121-13.379 54.918-46.852 55.223-48.27v-.004a8.46 8.46 0 0 0-6.379-9.977z"/><path d="M432.95 385.86l6.426-1.422c11.941-2.187 23.004-7.758 31.867-16.051.406-.391 1.016-1.031 1.016-1.031a32.62 32.62 0 0 0 7.578-13.227 8.47 8.47 0 0 0-5.914-10.41c-4.508-1.242-9.168 1.402-10.41 5.91-2.199 7.965-12.109 14.359-27.906 18.012-3.875.887-7.793 1.57-11.738 2.047-2.098.27-4.582.203-6.766.391l-28.332-28.16-2.891-26.809 33.676 6.496v-.004a17.95 17.95 0 0 0 14.512-3.582l60.094-47.629c4.269-3.316 6.543-8.586 6.023-13.969a15.76 15.76 0 0 0-8.582-12.555c-4.824-2.438-10.562-2.234-15.199.543l-57.117 36.871-147.32-32.66-11.281-60.566c-1.133-5.266-4.879-9.586-9.93-11.461s-10.707-1.035-15 2.219a15.76 15.76 0 0 0-6.191 13.84l5.328 72.93v.004a19.01 19.01 0 0 0 13.973 16.914l53.668 14.512 2.266 56.152c-30.066-9.125-57.777-24.711-81.188-45.668a8.46 8.46 0 0 0-12.211 11.637c.594.559 1.082 1.098 1.691 1.691l.152.137a283.14 283.14 0 0 0 108.64 53.023 303.54 303.54 0 0 0 111.07 11.875zm-3.45 81.03c-4.043-7.187-7.863-14.512-11.637-21.852h20.938c5.797.672 11.609-1.078 16.074-4.832a21.19 21.19 0 0 0 1.769-30.77l-8.879-8.828v-.004c-11.996 2.473-24.219 3.66-36.465 3.555-31.777-.516-63.352-5.176-93.922-13.871a422.17 422.17 0 0 1-35.637-11.723l-30.09 31.258c-3.852 4.297-5.793 9.981-5.367 15.734a21.22 21.22 0 0 0 23.551 19.531h31.391l-4.094 31.578c-3.231 27.637-6.375 55.309-8.457 83.148a15.41 15.41 0 0 0 5.777 13.27 15.4 15.4 0 0 0 24.363-7.707c7.934-26.773 14.852-53.734 21.684-80.73l9.504-39.562h16.32l28.938 42.707 52.77 75.926.004.004a15.23 15.23 0 0 0 25.805-1.246c2.563-4.586 2.578-10.172.039-14.773z"/></svg>