<svg xmlns="http://www.w3.org/2000/svg" viewBox="0 0 485 485"><path d="M323.4,205a22.2,22.2,0,1,0,0,44.4h2.1l12.2,13.3,11.6-9.3h0l4.7-3.8-11-11.9a21.7,21.7,0,0,0,2.6-10.4A22.1,22.1,0,0,0,323.4,205Z"/><path d="M308.6,117.1l29.6-17v16.5a17.3,17.3,0,0,0-7.4,0A18.5,18.5,0,1,0,353,134.7V65.1h0a7.4,7.4,0,0,0-11.1-6.5L297.5,84.2a7.3,7.3,0,0,0-3.7,6.4V124a22.1,22.1,0,0,0-3.7-.4,18.5,18.5,0,1,0,18.5,18.5Z"/><path d="M375.1,162.2h0a20.2,20.2,0,0,0-7.4-1.3,22.2,22.2,0,1,0,22.2,22.2h0v-23L429.7,143a7.5,7.5,0,0,0,4.5-6.8V106.8h0a7.6,7.6,0,0,0-3.3-6.2,7.3,7.3,0,0,0-7-.6l-44.4,19a7.4,7.4,0,0,0-4.5,6.8v36.4h0"/><path d="M365.7,259.2,306.1,307a7.6,7.6,0,0,1-9.9-.5l-11.4-11.4a105.5,105.5,0,0,0-74.9-30.9H175.3a106,106,0,0,0-80.6,37.1L67.4,333.1a17.2,17.2,0,0,0-.8,12.8A16.6,16.6,0,0,0,78,356.8l60.3,22.9a14,14,0,0,0,12.7-1.5,13.8,13.8,0,0,0-2.3-23.9l-36.6-16.1a7.2,7.2,0,0,1-4.3-5.5,7.4,7.4,0,0,1,2-6.6l16-15.9a7.4,7.4,0,0,1,8-1.5,7.1,7.1,0,0,1,4.6,6.7l.2,18.2,16,7a28.6,28.6,0,0,1,4.8,49.7,28.1,28.1,0,0,1-20.8,4.7l.2,17.2H242V316a7.3,7.3,0,0,1,4.6-6.8,7.6,7.6,0,0,1,8.1,1.5L283,339a18.3,18.3,0,0,0,24.3,1.3l75.1-60a13.6,13.6,0,0,0,5.1-9.8h0a12.6,12.6,0,0,0-3.9-10.2A13.6,13.6,0,0,0,365.7,259.2Z"/><path d="M190.2,249.4A44.4,44.4,0,1,0,145.8,205,44.4,44.4,0,0,0,190.2,249.4Zm0-37a14.8,14.8,0,1,1-14.8,14.8A14.9,14.9,0,0,1,190.2,212.4Z"/></svg>