<svg xmlns="http://www.w3.org/2000/svg" viewBox="-100 -100 652 652"><circle cx="226.287" cy="46.507" r="46.507"/><path d="M195.035 389.666l12.327 25.31h37.299c1.155-2.954.88-2.245 12.653-25.988l-31.01-43.127-31.269 43.805zm89.135-87.291l2.208-.045h0c5.2 0 9.415-4.215 9.415-9.415a9.42 9.42 0 0 0-9.415-9.415h-8.182c-4.051-8.101-14.569-15.64-26.565-15.645h-.013-50.61c-10.422.004-19.836 4.858-26.578 15.645h-8.188c-5.131 0-9.415 4.177-9.415 9.415 0 5.2 4.215 9.415 9.415 9.415h0l2.214.045 3.316 29.008 20.822 24.985 25.035-35.049c2.001-2.801 5.233-4.465 8.676-4.465a10.66 10.66 0 0 1 8.676 4.465l25.035 35.049 20.843-25.01 3.311-28.983zm-140.453-.785a35.35 35.35 0 0 1 2.148-28.216l-31.475 7.52c-13.979 3.314-22.949 17.183-20.173 31.34.411 2.096-2.331-7.018 37.402 121.587 4.398 14.235 19.497 22.164 33.676 17.779 14.211-4.391 22.169-19.468 17.78-33.676-9.634-30.789-29.88-89.182-39.358-116.334zm194.7-20.696l-32.756-7.826a35.06 35.06 0 0 1 2.624 29.442c-7.093 19.658-20.584 58.294-38.551 115.415-4.39 14.209 3.57 29.286 17.779 33.676 14.202 4.39 29.286-3.567 33.676-17.779l36.923-119.588c4.046-14.657-4.846-29.765-19.695-33.34zm61.132-112.686a22.44 22.44 0 0 0-12.525-35.982l-90.241-20.358c-7.231-1.631-14.625-2.431-22.038-2.383l-97.32.629a97.26 97.26 0 0 0-20.781 2.383l-90.861 20.497a22.44 22.44 0 0 0-12.525 35.982l49.925 61.871c7.739 9.591 21.866 11.189 31.555 3.371 3.456-2.789 5.848-6.399 7.162-10.319l87.1-19.16c2.468-.552 4.194-2.895 3.898-5.463-.316-2.747-2.8-4.717-5.547-4.4l-87.628 10.096c-1.178-1.902.981.906-28.905-36.13l56.038-12.642v33.586l59.258-2.308c6.954-.271 12.811 5.147 13.082 12.101.228 5.86-3.594 10.941-8.96 12.557l-63.38 19.073v31.599c9.049-8.711 21.242-13.784 34.15-13.784h50.61c12.884 0 25.054 5.056 34.099 13.737v-47.078l-46.172-51.498c-4.646-5.182-4.211-13.148.97-17.794 4.367-3.915 10.718-4.214 15.386-1.113l29.815 19.812v-9.711l56.272 12.695-26.662 33.041-64.333-50.164c-2-1.548-4.905-1.382-6.693.484a5.01 5.01 0 0 0 .151 7.079l66.064 63.307a22.31 22.31 0 0 0 7.553 11.63c9.672 7.806 23.801 6.239 31.555-3.371l49.928-61.872z"/></svg>