<svg xmlns="http://www.w3.org/2000/svg" viewBox="134 134 485 485"><path d="M308.37 281.52a547.62 547.62 0 0 1 5.578 16.328c-2.469 3.34-4.098 7.336-4.527 11.695a23.44 23.44 0 0 0-.121 2.359c0 13.098 10.613 23.707 23.707 23.707 7.551 0 14.262-3.543 18.602-9.043-3.652 7.719-11.488 13.074-20.598 13.074-2.117 0-4.156-.312-6.102-.852 1.484 7.938 2.285 15.234 1.856 20.816-.508 6.563-2.32 11.84-4.617 16.633h-.043l-3.922 7.375c-2.102 3.652-4.234 7.262-5.977 11.238l-24.797 46.621s1.664.363 4.715.914c10.027 1.813 35.23 5.699 67.035 5.699 31.855 0 69.465-18.051 85.215-26.434l1.59-.852c2 1.578 4.519 2.523 7.258 2.523.055 0 .109 0 .164-.004 6.477-.09 11.656-5.414 11.562-11.891-.527-36.941-11.383-67.898-23.848-90.305-6.25-11.219-12.891-20.312-19.082-27.133-3.106-3.41-6.09-6.254-9.023-8.57-1.637-1.262-3.211-2.371-4.91-3.34-4.34-3.168-11.715-7.387-22.777-10.215-5.867 2.777-12.402 4.332-19.273 4.332a45.03 45.03 0 0 1-10.227-1.18c-4.894-1.141-9.453-3.09-13.598-5.672-4.727.324-8.918.773-12.598 1.289a103.75 103.75 0 0 1-7.562-10.648c-6.164-9.91-11.574-22.766-11.527-35.953.043-9.398 2.477-19.121 9.766-29.703 7.305-10.543 19.781-21.945 40.168-33.102 5.684-3.109 7.766-10.234 4.66-15.918s-10.234-7.766-15.918-4.66c-22.707 12.426-38.246 25.992-48.184 40.305-9.957 14.285-13.992 29.312-13.953 43.078.063 20.781 8.531 38.301 16.555 50.691 1.613 2.465 3.215 4.731 4.754 6.793zm133.07 128.19l-45.23-33.48h-.039c-2.297-4.793-4.109-10.07-4.617-16.633-.477-6.168.625-13.816 2.543-21.824-2.766 1.191-5.809 1.856-9.008 1.856-9.106 0-16.941-5.348-20.594-13.066 4.344 5.496 11.051 9.039 18.598 9.039 13.098 0 23.703-10.609 23.703-23.707a23.56 23.56 0 0 0-.121-2.359c.391 1.16.684 2.363.887 3.594 14.262 17.285 32.789 52.094 33.879 96.582z"/><path d="M332.06 456.93l4.012 53.188 16.957-52.316c-7.445-.113-14.473-.434-20.969-.871z"/><path d="M350.95 609.17a19.46 19.46 0 0 0 12.441 3.332c10.762-.812 18.836-10.199 18.023-20.965l-4.231-56.094-21.078 65.027c-1.066 3.309-2.863 6.246-5.156 8.699z"/><path d="M359.16 457.86c-.684 0-1.356-.008-2.031-.012l-41.93 129.36c-3.328 10.273 2.297 21.297 12.566 24.625s21.293-2.297 24.625-12.566l48.309-149.05c-13.477 4.387-28.027 7.644-41.539 7.644z"/><path d="M375.3 191.27c22.074 5.141 35.805 27.203 30.664 49.281s-27.207 35.805-49.281 30.664-35.805-27.207-30.664-49.281 27.203-35.805 49.281-30.664"/></svg>