<svg xmlns="http://www.w3.org/2000/svg" viewBox="134 134 485 485"><path d="M331.69 612.79a18.73 18.73 0 0 0 3.641-.359c7.238-1.434 12.637-6.879 14.398-13.562-12.547-.082-24.785-.414-36.281-.996 1.801 8.816 9.559 14.914 18.242 14.918z"/><path d="M397.86 599.97c3.117 6.879 9.898 10.953 16.992 10.953 2.574 0 5.188-.535 7.688-1.668 5.781-2.617 9.566-7.82 10.637-13.625-11.547 1.035-23.742 1.824-36.18 2.363l.863 1.977zm105.83-67.51c-9.594 5.035-44.398 21.746-76.723 17.551-37.934-4.926-48.727 15.258-78.812 3.117-29.945-12.082-66.043 11.648-99.805-13.074-3.832 11.184-7.078 23.086-9.527 35.754-.16.824-.047 1.621.316 2.391 11.008 23.309 254.19 21.441 273.33-7.195a7.4 7.4 0 0 0 .781-1.481c-2.566-13.414-5.824-25.738-9.562-37.062zM317.95 255.84a4.64 4.64 0 0 0 .516.16c.371.098.777.137 1.191.145 3.586 11.879 12.734 21.867 25.434 25.973 20.57 6.648 42.637-4.641 49.289-25.211 6.644-20.57-4.641-42.641-25.211-49.285-10.602-3.426-21.582-2.062-30.66 2.852-1.301-.078-3.031.234-5.082 1.508-.258-.812-.586-1.547-.973-2.207-.988-1.687-2.359-2.84-3.961-3.254a5.3 5.3 0 0 0-2.762.031c-2.668.754-4.891 3.781-3.699 8.656-2.418-.016-4.43.613-5.801 1.891-1.07.988-1.695 2.316-1.754 3.738-.09 2.441 1.449 4.527 4 5.551.137.055.289.094.43.141a4.67 4.67 0 0 0-.613.246c-2.285 1.094-3.953 3.965-2.887 8.328-2.414-.016-4.43.613-5.801 1.891-1.07.988-1.691 2.32-1.754 3.738-.102 2.766 1.879 5.082 5.063 5.902a11.09 11.09 0 0 0 1.406.25c.199.023.406.039.609.051a11.19 11.19 0 0 0-.484 2.016c-.137 1.004-.125 1.965.078 2.852a6.05 6.05 0 0 0 .582 1.519c.625 1.164 1.606 2.059 2.844 2.519zm.063-8.234c1.031-2.789 3.32-5.371 4.769-4.84 1.445.539 1.508 3.984.477 6.777s-2.758 3.875-4.211 3.344c-1.453-.539-2.066-2.484-1.035-5.281zm.516-12.953c-.816-2.867-.047-4.762 1.438-5.18s3.129.797 3.941 3.66c.805 2.871.473 6.301-1.019 6.719-1.477.426-3.551-2.332-4.359-5.199zm10.871-11.777c1.449.535 1.512 3.984.48 6.777a9.18 9.18 0 0 1-.434.996c-.801.23-1.687.629-2.641 1.223-.512-1.606-1.285-2.922-2.258-3.879.031-.094.051-.184.086-.277 1.031-2.793 3.32-5.375 4.766-4.84zm-1.223 11.84c2.481-1.652 4.519-1.516 5.375-.227s.211 3.219-2.266 4.879-5.844 2.394-6.703 1.113c-.855-1.289 1.125-4.113 3.594-5.766zm-3.66 7.563c.957-1.215 4.25-.207 6.59 1.637s2.832 3.828 1.879 5.047c-.957 1.203-3 1.191-5.34-.656s-4.094-4.816-3.129-6.027zm9.746-13.859c-2.336-1.848-4.086-4.82-3.129-6.031s4.25-.207 6.594 1.637c2.34 1.852 2.832 3.832 1.875 5.047-.957 1.203-3 1.188-5.34-.652zm5.91-13.82c.859 1.285.211 3.223-2.266 4.879s-5.84 2.394-6.703 1.113c-.855-1.285 1.125-4.113 3.594-5.762 2.481-1.66 4.519-1.519 5.375-.23zm-13.586-5.016c1.488-.418 3.129.793 3.941 3.66s.477 6.301-1.016 6.719c-1.481.418-3.559-2.336-4.363-5.203-.812-2.859-.047-4.754 1.438-5.176zm-8.961 11.371c.059-1.543 1.723-2.727 4.699-2.613s6.137 1.496 6.078 3.039-3.324 2.668-6.297 2.551c-2.981-.121-4.539-1.437-4.481-2.977zm-6.621 19.891c.059-1.543 1.723-2.731 4.695-2.613s6.137 1.496 6.074 3.039-3.324 2.668-6.293 2.551c-2.977-.117-4.539-1.437-4.477-2.977zM248.03 534.12c33.906 25.32 70.211 1.277 100.3 13.418s40.875-8.043 78.812-3.117c30.711 3.988 63.672-10.906 75.113-16.723 2.691-1.367 4.195-2.234 4.195-2.234-1.383-3.168-4.258-5.953-8.363-8.379-4.043-10.117-8.453-19.309-13.043-27.621-8.004 4.418-38.18 19.719-66.168 15.961-32.613-4.379-41.922 13.773-67.781 2.898-25.227-10.609-55.586 9.719-84.098-10.371a271.09 271.09 0 0 0-11.348 23.211c-8.684 3.531-12.523 7.336-9.496 11.188.465.59 1.086 1.18 1.875 1.769zm103.22-30.82c25.859 10.875 35.168-7.277 67.781-2.898 26.395 3.543 54.742-9.863 64.602-15.109 2.324-1.234 3.629-2.023 3.629-2.023-1.781-4.273-6.203-7.828-12.582-10.754l-3.789-5.441c-1.328-8.102-4.234-16.195-7.559-22-9.582 5.629-30 15.734-49.086 12.832-26.074-3.965-33.598 13.086-54.238 3.008-19.316-9.441-38.945 4.867-60.398-10.598-6.144 7.422-12.395 15.582-18.473 24.543-9.465 3.43-14.355 7.309-12.473 11.398.051.113.074.227.137.34 18.52 33.613 56.59 5.824 82.449 16.703z"/><path d="M301.82 441.62c-11.594 18.758 37.703 4.496 58.344 14.578s28.164-6.973 54.238-3.012c21.113 3.211 43.875-9.5 51.77-14.453 1.852-1.16 2.891-1.898 2.891-1.898-2.586-7.352-10.73-12.613-22.125-16.09-1.082-5.969-2.148-12.934-5.18-19.898-2.406-5.535-9.344-5.816-17.43-3.797-3.441-4.824-8.199-8.406-13.027-11.629-9.332 5.219-20.578 9.547-33.988 13.074a14.77 14.77 0 0 1-3.789.496c-6.777 0-12.707-4.582-14.422-11.145a14.81 14.81 0 0 1 1.547-11.309c2.012-3.437 5.246-5.887 9.094-6.898 9.25-2.41 16.477-5.086 22.125-7.742-.039-5.117.758-11.363 2.051-18.062-2.621 1.117-5.5 1.738-8.527 1.738-8.684 0-16.16-5.102-19.645-12.465 4.141 5.246 10.539 8.621 17.742 8.621 12.488 0 22.609-10.121 22.609-22.613a22.46 22.46 0 0 0-.113-2.246c-.305-3.07-1.219-5.961-2.629-8.551l.25-.793a58.05 58.05 0 0 1 2.945 3.238c7.023 8.117 11.629 17.93 11.523 25.984-.105 6.059-1.926 11.586-8.496 18.016l-.004.004c-1.496 1.438-3.289 2.898-5.363 4.356-7.215 5.063-18.043 10.086-33.52 14.121-5.973 1.57-9.555 7.684-7.981 13.66a11.19 11.19 0 0 0 10.816 8.352 11.31 11.31 0 0 0 2.84-.367c14.906-3.922 26.875-8.789 36.367-14.617 4.664-2.863 8.742-5.957 12.258-9.289.012-.012.027-.02.039-.031 10.512-9.887 15.527-22.379 15.422-34.203-.109-15.848-7.691-29.688-16.898-40.527-9.406-10.836-20.395-18.93-31.398-22.57-.922-.293-1.852-.445-2.769-.5-8.734 10.004-21.84 15.625-35.809 14.449-3.25-.273-6.492-.922-9.625-1.934-3.965-1.281-7.652-3.113-11.008-5.394-4.008.711-7.457 1.527-10.387 2.363l-1.398-1.875c-7.481-10.316-14.492-24.734-14.496-43.09.039-20.41 8.547-46.891 38.5-79.73a11.19 11.19 0 0 0-.699-15.805c-4.559-4.172-11.637-3.856-15.809.699-32.598 35.547-44.41 67.797-44.367 94.832 0 25.039 9.973 44.555 19.691 57.484 4.199 5.594 8.363 10.027 11.801 13.309-1.363 2.551-2.258 5.387-2.555 8.402a22.48 22.48 0 0 0-.113 2.25c0 12.492 10.121 22.613 22.613 22.613 7.203 0 13.605-3.379 17.742-8.625-3.484 7.359-10.957 12.469-19.648 12.469a21.73 21.73 0 0 1-5.508-.73c3.926 12.805 7.367 25.188 9 33.941 2.894 15.527-2.363 29.039-7.488 38.781L317.76 429.92a68.64 68.64 0 0 0-4.887 2.434c-5.156 2.824-8.992 5.93-11.055 9.266z"/></svg>