<svg xmlns="http://www.w3.org/2000/svg" viewBox="134 134 485 485"><path d="M423.83 198.88c0 26.418-21.414 47.832-47.832 47.832s-47.832-21.414-47.832-47.832 21.418-47.832 47.832-47.832 47.832 21.414 47.832 47.832M531.81 316.8c-3.789-11.367-15.629-17.523-26.992-13.734-20.363 6.629-43.098 7.106-47.359 3.316-1.894-1.894-3.789-5.211-6.156-8.996-8.051-13.262-21.785-35.047-53.043-35.047h-44.043c-31.258 0-44.988 21.785-53.043 35.047a132.89 132.89 0 0 1-6.156 8.996c-4.262 3.789-26.992 3.316-47.359-3.316-11.367-3.789-23.207 2.84-26.992 13.734-3.789 11.367 2.84 23.207 13.734 26.992 6.156 1.894 25.574 7.578 46.41 7.578 16.574 0 33.625-3.789 44.988-15.629 1.894-1.894 3.316-3.789 4.734-5.684l-2.367 53.516c-63.461 41.203-63.934 52.566-63.934 64.406 0 13.734 0 27.469 86.191 66.773 3.789 1.422 7.106 2.367 10.891 2.367 2.84 0 5.211-.473 7.578-.945l-1.422 58.25c-.473 14.68 11.367 26.992 26.047 27.469h.473c14.68 0 26.52-11.367 26.52-26.047l4.262-177.59v-1.894l-3.316-64.879c1.422 1.894 2.367 3.316 4.262 5.211 25.574 27.469 80.508 11.84 91.402 8.051 11.852-4.738 18.008-16.578 14.691-27.941zM331.96 445.14c10.891-8.051 25.574-17.523 39.309-26.52l-.945 45.465c-13.734-5.684-27.469-12.789-38.363-18.945z"/></svg>