<svg xmlns="http://www.w3.org/2000/svg" viewBox="134 134 485 485"><path d="M504.79 267.41a36.85 36.85 0 0 0-18.426-31.914c-11.402-6.586-25.453-6.586-36.855 0s-18.426 18.75-18.426 31.914a36.86 36.86 0 0 0 18.426 31.918c11.402 6.582 25.453 6.582 36.855 0a36.86 36.86 0 0 0 18.426-31.918zm13.75-108.4c-34.66.414-68.555 10.262-98.047 28.477a190.94 190.94 0 0 0-69.363 74.926l1.578-3.102-55.211 104.77-82.402 193.38c-3.574 8.398-2.394 18.062 3.09 25.355a25.53 25.53 0 0 0 23.5 10 25.55 25.55 0 0 0 20.414-15.352l50.703-119.03a3.06 3.06 0 0 1 2.789-1.805 3.07 3.07 0 0 1 2.793 1.805l55.398 115.12v-.004c3.965 8.219 12.008 13.699 21.102 14.379a25.55 25.55 0 0 0 23.008-11.078 25.54 25.54 0 0 0 1.918-25.461l-61.012-126.78a3.05 3.05 0 0 1 .031-2.711c.43-.848 1.231-1.449 2.168-1.625l97.539-17.652c6.094-1.106 11.371-4.883 14.379-10.293a20.68 20.68 0 0 0 1.168-17.648c-15.691-41.645-41.316-78.824-74.648-108.32a3.07 3.07 0 0 1-.492-4.086 150.1 150.1 0 0 1 120.04-62.414 20.43 20.43 0 0 0 17.375-10.488c3.523-6.332 3.43-14.055-.242-20.297a20.43 20.43 0 0 0-17.629-10.066zM405.56 333.29h.004a232.46 232.46 0 0 1 20.621 33.664l-42.414 7.688z"/></svg>