<svg xmlns="http://www.w3.org/2000/svg" viewBox="134 134 485 485"><path d="M499.13 284.12c-6.629-.945-12.785 4.734-12.785 11.367v117.45c-8.523-2.84-17.996-3.789-27.469-1.894-26.047 5.211-43.57 26.992-39.309 48.777s28.887 35.52 54.461 30.309c23.207-4.734 39.781-22.258 39.781-41.676v-118.39c38.359 0 34.57 39.781 26.047 63.934-.945 3.316.473 6.629 3.316 8.523l5.211 2.367c2.84 1.422 6.156.473 8.523-1.894 38.832-47.355 9.945-110.82-57.777-118.87zm-157.7-28.88c28.887-.473 51.621-24.625 50.672-53.043-.473-28.887-24.152-51.617-53.039-51.145s-51.621 24.625-50.672 53.043c.473 28.887 24.625 51.617 53.039 51.145zm78.61 304.98c-14.68-49.254-39.781-95.191-73.879-134.02l25.102-110.82c45.938-3.789 73.879-19.891 103.71-86.664 5.211-11.84 0-26.047-11.84-31.258s-26.047 0-31.258 11.84c-26.52 59.672-34.57 59.672-109.87 60.145h-6.156c-94.715.473-134.02 73.406-135.92 76.719-6.156 11.367-1.422 25.574 9.945 31.73 3.316 1.894 7.106 2.84 10.891 2.84 8.523 0 16.574-4.734 20.836-12.312.945-1.422 16.102-28.887 50.199-43.098-2.367 16.102-4.734 38.359-7.106 68.195-1.894 22.73 5.684 41.676 20.836 53.988l-29.836 119.82c-3.789 14.68 5.211 28.887 19.418 32.676 2.367.473 4.262.945 6.629.945 12.312 0 23.207-8.051 26.047-20.363l21.785-87.141c17.051 25.102 29.836 53.043 38.359 82.402l1.894 6.156c3.316 11.84 14.207 19.418 26.047 19.418 2.367 0 5.211-.473 7.578-.945 14.207-4.262 22.258-18.941 18.469-33.625z"/></svg>