<svg xmlns="http://www.w3.org/2000/svg" viewBox="0 0 512 512"><g fill="#1d1d1b"><path d="M312.9 161.3l-55.5 51.8-55.5-51.7v26.5l-1.8-1.5-37.2-34.8a4.5 4.5 0 0 1-1.4-3.1l-.2-77.2a11.4 11.4 0 0 1 .1-1.5l95.9 89.9 95.8-89.1v288.6h-40.2zM80.6 359.1V101.7l176.8 164.8 35.1-32.8a20.6 20.6 0 0 1 .2 2.1l-.1 49.3a4.8 4.8 0 0 1-1 2.8l-33.4 31.2-.9.7L121 192.7v166.4zm353.4.1h-40.1V193.3l-.5-.3-19.6 18.2a16.2 16.2 0 0 1-.2-1.8v-49.7a4 4 0 0 1 1-2.6l58.8-54.8.6-.3zM161.6 257.3l5.7 5.3 33 30.8a4.8 4.8 0 0 1 1.5 3.1v60.8 1.8h-40.2zm-8.7 127.4l18.6 38.3h-9.4l-13.9-28.6-13.8 28.6h-9.3l18.5-38.3zm40 31.7h27v6.6h-35.7v-38.3h8.7zm65.5-31.7l18.5 38.3h-9.3l-13.9-28.6-13.8 28.6h-9.4l18.5-38.3zM398.2 423h-8.8v-38.3h8.8zm40.6-38.3l18.5 38.3h-9.4l-13.8-28.6-13.8 28.6h-9.4l18.5-38.3z"/><path d="M65.6 422.5h-8.3v-38.2l29.1 27.2 29.2-27.2v38.2h-8.4v-19.4l-20.8 19.4-20.8-19.4v19.4zm264.3 0h-8.3v-38.2l29.1 27.2 29.2-27.2v38.2h-8.4v-19.4l-20.8 19.4-20.8-19.4v19.4z"/><path d="M208.7 440a9.4 9.4 0 0 1 4.7 1.2 9.3 9.3 0 0 1 3.5 3.3 8.4 8.4 0 0 1 0 9 9.3 9.3 0 0 1-3.5 3.3 9.4 9.4 0 0 1-4.7 1.2H203v-18zm0 14.9a6.1 6.1 0 0 0 4.3-1.7 5.9 5.9 0 0 0 1.9-4.2 5.8 5.8 0 0 0-1.8-4.2 6.6 6.6 0 0 0-4.4-1.7h-2.4v11.8zm28-14.9l6.9 18h-3.5l-5.1-13.4-5.2 13.4h-3.5l6.9-18zm25.8 0h3.2v18h-3.2l-7.4-11.9V458h-3.3v-18h3.3l7.4 11.9zm25.2 13.2l2.4 2.2a10.3 10.3 0 0 1-6.7 2.6 9 9 0 0 1-3.7-.7 10.8 10.8 0 0 1-3.1-1.9 10 10 0 0 1-2-2.9 8.4 8.4 0 0 1-.7-3.5 8.9 8.9 0 0 1 1.2-4.5 9.3 9.3 0 0 1 3.5-3.3 9.8 9.8 0 0 1 4.8-1.2 6.5 6.5 0 0 1 1.9.2l1.8.5 1.6.8 1.4 1.1-2.4 2.2a6.1 6.1 0 0 0-4.3-1.7 6.2 6.2 0 0 0-4.4 1.7 5.6 5.6 0 0 0 0 8.4 6.2 6.2 0 0 0 4.4 1.7 6.1 6.1 0 0 0 4.3-1.7zm23.9-10.1h-10.1v4.3h7.8v3.2h-7.8v4.3h10.1v3.1h-13.4v-18h13.4z"/></g></svg>