<svg xmlns="http://www.w3.org/2000/svg" viewBox="0 0 512 512"><g fill="#1d1d1b" class="animate"><path id="logo-mala-mia" d="M26.1 446.3H16v-45.8l35 32.6 35-32.6v45.8H75.9v-23.2L51 446.3l-24.9-23.2v23.2zm317.1 0h-10.1v-45.8l35 32.6 35-32.6v45.8H393v-23.2l-24.9 23.2-24.9-23.2v23.2z M130.8,401,153,446.9H141.8l-16.7-34.3-16.5,34.3H97.4L119.6,401Z M178.8,439h32.4v7.9h-43V401h10.6Z M257.3,401l22.3,45.9H268.3l-16.6-34.3-16.6,34.3H223.9L246.1,401Z M425,446.9H414.5V401H425Z M473.8,401,496,446.9H484.8l-16.7-34.3-16.5,34.3H440.3L462.6,401Z"/><path id="logo-dance" d="M197.7,467.3a12.6,12.6,0,0,1,5.7,1.4,11.2,11.2,0,0,1,4.1,4,10.2,10.2,0,0,1,1.5,5.4,10,10,0,0,1-1.5,5.4,11.2,11.2,0,0,1-4.1,4,12.6,12.6,0,0,1-5.7,1.4h-6.8V467.3Zm0,17.9a7.2,7.2,0,0,0,5.2-2.1,6.5,6.5,0,0,0,2.2-5,6.6,6.6,0,0,0-2.2-5,7.2,7.2,0,0,0-5.2-2.1h-2.9v14.2Z M231.3,467.3l8.3,21.6h-4.2l-6.2-16.1L223,488.9h-4.2l8.3-21.6Z M262.2,467.3h3.9v21.6h-3.9l-8.9-14.2v14.2h-3.9V467.3h3.9l8.9,14.2Z M292.5,483.1l2.8,2.7a11.3,11.3,0,0,1-8,3.1,10.8,10.8,0,0,1-4.4-.8,12.3,12.3,0,0,1-3.7-2.3,10.9,10.9,0,0,1-2.4-3.5,9.9,9.9,0,0,1-.9-4.2,10.2,10.2,0,0,1,1.5-5.4,10.8,10.8,0,0,1,4.2-4,12,12,0,0,1,5.7-1.4l2.3.2,2.1.6,2,1a10.7,10.7,0,0,1,1.6,1.4l-2.8,2.6a7.2,7.2,0,0,0-5.2-2.1,7.4,7.4,0,0,0-5.3,2.1,7,7,0,0,0-2.2,5,6.8,6.8,0,0,0,2.2,5,7.4,7.4,0,0,0,5.3,2.1A7.2,7.2,0,0,0,292.5,483.1Z M321.1,471H309v5.2h9.4V480H309v5.2h12.1v3.7h-16V467.3h16Z"/><path id="logo-icon" d="M322.7,132.9l-66.6,62.2L189.6,133v31.8l-2.2-1.8c-14.9-13.9-29.9-27.8-44.7-41.8a5.6,5.6,0,0,1-1.7-3.6q-.1-46.3-.2-92.6a15.8,15.8,0,0,1,.1-1.9L256.1,131,371,24.1V370.3H322.7Z M44,370.3V61.4L256.1,259.1l42.2-39.3c.1,1.1.2,1.8.2,2.5,0,19.7,0,39.4-.1,59.1a4.9,4.9,0,0,1-1.3,3.3q-20,18.9-40.1,37.6l-1,.7C201.6,272.4,147.3,221.7,92.5,170.5V370.3Z M468,370.4H419.9V171.3l-.6-.4-23.5,21.9c-.1-1-.3-1.6-.3-2.2,0-19.9,0-39.7.1-59.6a5,5,0,0,1,1.2-3.1l70.5-65.8.7-.4Z M141.2,248.1l6.9,6.3c13.2,12.4,26.4,24.6,39.5,37a5.5,5.5,0,0,1,1.8,3.7q.2,36.4.1,73c0,.7-.1,1.3-.1,2.2H141.2Z"/></g></svg>